<?xml version="1.0" encoding="UTF-8" standalone="no"?>
<!-- Created with Inkscape (http://www.inkscape.org/) -->

<svg
   width="188.31329mm"
   height="188.34315mm"
   viewBox="0 0 188.31329 188.34315"
   version="1.1"
   id="svg1"
   xml:space="preserve"
   xmlns="http://www.w3.org/2000/svg"
   xmlns:svg="http://www.w3.org/2000/svg"><defs
     id="defs1" /><g
     id="layer1"
     transform="translate(-9.0469195,-52.653039)"><path
       style="fill:#FF6D00;stroke-width:0.814398"
       d="m 96.363662,240.65963 c -1.117745,-0.48592 -1.424465,-1.27553 -2.193166,-5.64602 -1.135361,-6.45517 -1.034,-6.10118 -1.747025,-6.10118 -0.985509,0 -6.172121,-1.00899 -9.294427,-1.80811 -1.582051,-0.40491 -2.933967,-0.70072 -3.004257,-0.65734 -0.07029,0.0434 -1.42054,1.97964 -3.000559,4.30281 -2.894619,4.2561 -3.455414,4.84239 -4.631763,4.84239 -0.309693,0 -1.550801,-0.42552 -2.75802,-0.9456 -7.646769,-3.29433 -9.343362,-4.07186 -9.780062,-4.48212 -0.860271,-0.80818 -0.820657,-1.50997 0.375792,-6.65739 0.616998,-2.65448 1.158138,-4.92406 1.202532,-5.04352 0.04439,-0.11945 -0.622164,-0.64614 -1.48124,-1.17042 -1.880142,-1.14741 -7.187924,-4.87735 -7.377826,-5.18462 -0.07434,-0.12028 -0.270385,-0.21868 -0.435667,-0.21868 -0.16528,0 -2.241701,1.30901 -4.614267,2.90892 -3.861553,2.60399 -4.41036,2.90917 -5.23528,2.91121 -0.915604,0.002 -0.951438,-0.0279 -5.579672,-4.70489 -4.910385,-4.96206 -5.38798,-5.62219 -4.933135,-6.81852 0.124195,-0.32665 1.486047,-2.47135 3.026337,-4.76598 l 2.800529,-4.17205 -1.31861,-1.78321 c -0.725236,-0.98076 -1.336623,-1.80329 -1.358639,-1.82783 -0.02201,-0.0245 -2.243591,0.58148 -4.936835,1.34672 -2.693243,0.76524 -5.233106,1.39135 -5.644139,1.39135 -0.51632,0 -0.945354,-0.18316 -1.387944,-0.59255 -0.666621,-0.61662 -6.622171,-11.93114 -6.831787,-12.97922 -0.250205,-1.25102 0.336988,-1.93159 4.635471,-5.37257 2.267642,-1.81528 4.122986,-3.41633 4.122986,-3.55789 0,-0.14156 -0.296504,-1.12401 -0.658898,-2.18322 -0.985539,-2.88054 -2.10654,-7.37274 -2.676075,-10.72385 -0.278569,-1.63908 -0.540768,-3.01442 -0.582663,-3.05632 -0.0419,-0.0419 -2.388198,-0.52001 -5.214007,-1.06246 -5.65168,-1.08492 -6.214873,-1.31234 -6.5893412,-2.66064 -0.2777926,-1.00021 -0.2904573,-13.39607 -0.014903,-14.5892 0.3465034,-1.50036 0.678122,-1.64145 6.5416872,-2.78318 2.923599,-0.56928 5.315634,-1.06031 5.315634,-1.09118 0,-0.0309 0.199251,-1.20802 0.44278,-2.61589 0.845332,-4.88695 2.201386,-9.87775 3.95877,-14.56982 0.423431,-1.13053 0.769875,-2.15031 0.769875,-2.26619 0,-0.11589 -1.721115,-1.684 -3.824699,-3.48469 -2.103585,-1.8007 -3.999618,-3.58328 -4.213406,-3.96128 -0.240741,-0.42565 -0.350075,-0.9437 -0.287222,-1.3609 0.134017,-0.88955 6.894387,-12.731911 7.703185,-13.493921 0.440574,-0.41509 0.856108,-0.59257 1.387434,-0.59257 0.421885,0 2.795897,0.76501 5.349463,1.72382 2.525033,0.94809 4.697669,1.72381 4.828081,1.72381 0.130412,0 0.991664,-0.93815 1.913895,-2.08477 3.153923,-3.9213 7.325802,-8.00817 12.940073,-12.67637 l 0.519526,-0.43198 -1.737936,-4.82031 c -1.943512,-5.39048 -2.064498,-6.14094 -1.145378,-7.10461 0.325908,-0.3417 2.580326,-1.76296 5.009819,-3.15836 2.429492,-1.3954 5.192971,-2.99527 6.141066,-3.55526 0.948094,-0.56 1.989644,-1.08119 2.314552,-1.15821 1.011452,-0.23976 1.936512,0.34706 3.400454,2.15711 2.903964,3.59053 5.02831,6.22397 5.068554,6.28323 0.02307,0.034 0.563619,-0.14737 1.201214,-0.40297 5.255936,-2.10704 13.542413,-4.33465 18.000739,-4.83906 1.266315,-0.14326 1.328272,-0.17831 1.457826,-0.82456 0.07442,-0.37122 0.475334,-2.69798 0.89092,-5.1706 0.415587,-2.47261 0.904281,-4.78314 1.085987,-5.13452 0.613854,-1.18707 1.07787,-1.25136 9.032305,-1.25136 7.7955,0 8.05675,0.0341 8.78582,1.1468 0.19558,0.2985 0.72068,2.72637 1.22511,5.66448 0.48554,2.82814 0.95194,5.19907 1.03644,5.26875 0.0845,0.0697 1.22013,0.29201 2.52367,0.49408 4.69512,0.72787 10.39456,2.27382 15.49724,4.20358 1.29415,0.48943 2.37094,0.86597 2.39287,0.83675 0.0219,-0.0292 1.51011,-1.86785 3.30709,-4.08582 2.84245,-3.50838 3.37824,-4.06595 4.12098,-4.28848 0.7731,-0.23162 0.95425,-0.20364 1.91772,0.29623 3.05243,1.58365 12.36693,7.17489 12.73745,7.64594 0.71188,0.90501 0.53152,1.87173 -1.30205,6.97883 l -1.73062,4.82039 0.81136,0.64643 c 4.05574,3.23131 9.80311,8.88416 12.76591,12.55593 0.8826,1.09378 1.71101,1.98871 1.84092,1.98871 0.12991,0 2.29449,-0.77572 4.81016,-1.72381 2.51568,-0.9481 4.9098,-1.72382 5.32027,-1.72382 0.51492,0 0.94524,0.18372 1.38799,0.59257 0.81667,0.75413 7.54533,12.551551 7.69905,13.498811 0.159,0.97983 -0.34753,1.85866 -1.71321,2.97244 -2.49046,2.03107 -6.62074,5.63626 -6.62074,5.77903 0,0.0833 0.54283,1.64252 1.2063,3.46496 1.37284,3.77098 2.63704,8.5245 3.45207,12.98009 0.30717,1.67923 0.57251,3.06821 0.58965,3.08664 0.0171,0.0184 1.87346,0.38535 4.12519,0.8154 2.25173,0.43005 4.59721,0.88121 5.2122,1.00258 1.40071,0.27643 2.1439,0.85031 2.42857,1.87528 0.29401,1.05862 0.29401,13.6819 0,14.74051 -0.37482,1.34959 -0.80158,1.52364 -6.49682,2.64968 -2.8809,0.56961 -5.2609,1.05171 -5.28888,1.07133 -0.028,0.0196 -0.24591,1.17651 -0.48428,2.57085 -0.57372,3.35589 -1.71831,8.06156 -2.69762,11.0905 -0.65744,2.03344 -0.74322,2.49615 -0.50361,2.71688 0.15883,0.14632 1.99424,1.63269 4.07871,3.30304 2.08446,1.67035 3.92678,3.2019 4.09404,3.40344 0.16766,0.20201 0.30093,0.81081 0.29701,1.35682 -0.006,0.84716 -0.47019,1.88784 -3.20912,7.19575 -3.35479,6.50141 -3.59454,6.83094 -4.96986,6.83094 -0.30696,0 -1.9844,-0.39429 -3.72766,-0.87619 -1.74327,-0.48191 -4.00234,-1.10099 -5.02016,-1.37573 l -1.85059,-0.49954 -1.21994,1.7177 c -0.67098,0.94473 -1.21995,1.82848 -1.21995,1.96388 0,0.1354 1.17372,1.98174 2.60827,4.10297 1.43454,2.12122 2.74906,4.19374 2.92114,4.60558 0.58086,1.39021 0.34729,1.74062 -4.40875,6.61449 -2.43679,2.49715 -4.63121,4.65805 -4.87649,4.80198 -0.24527,0.14395 -0.80525,0.26516 -1.24438,0.26935 -0.67478,0.007 -1.46513,-0.44284 -5.10359,-2.90129 -2.36784,-1.59991 -4.39575,-2.90892 -4.50646,-2.90892 -0.11071,0 -0.67877,0.38017 -1.26235,0.84483 -0.58359,0.46465 -2.60827,1.88123 -4.49928,3.14795 -1.89102,1.26673 -3.46615,2.42026 -3.5003,2.5634 -0.0341,0.14315 0.42644,2.3551 1.02351,4.91546 0.59709,2.56035 1.0856,4.94626 1.0856,5.30202 0,1.11187 -0.84349,1.81605 -3.60251,3.00756 -1.3962,0.60297 -3.99302,1.73157 -5.7707,2.50802 -1.77767,0.77643 -3.5036,1.41201 -3.8354,1.41241 -1.22768,0.002 -1.75106,-0.54587 -4.67377,-4.88747 -1.58082,-2.34825 -2.88599,-4.2892 -2.90038,-4.31322 -0.0144,-0.024 -1.71956,0.37449 -3.78926,0.88557 -2.06969,0.51108 -4.92665,1.10422 -6.34879,1.31809 -1.42214,0.21388 -2.66996,0.46201 -2.77293,0.55141 -0.10297,0.0894 -0.60337,2.45612 -1.112,5.25936 -0.98588,5.43351 -1.09761,5.72457 -2.41082,6.28039 -1.01401,0.42918 -12.58158,0.40705 -13.577678,-0.026 z m 10.906848,-5.76774 c 0.12195,-0.62219 0.52975,-2.82812 0.90623,-4.90208 0.37649,-2.07396 0.81854,-4.03584 0.98234,-4.35974 0.43529,-0.86078 1.20716,-1.15993 3.73813,-1.44874 3.8777,-0.44248 8.54938,-1.45329 12.60535,-2.7274 2.07584,-0.65209 2.84882,-0.56503 3.7005,0.41678 0.33496,0.38614 1.71411,2.3709 3.06478,4.41058 1.35067,2.03969 2.55629,3.70852 2.67916,3.70852 0.51765,0 6.82306,-2.93177 6.82351,-3.17267 2.7e-4,-0.14505 -0.49227,-2.44805 -1.09454,-5.11776 l -1.09503,-4.85403 0.39473,-0.79824 c 0.31522,-0.63746 0.87241,-1.08234 2.76595,-2.20843 2.86977,-1.70666 5.90855,-3.79569 8.50716,-5.8483 2.93506,-2.31837 2.65003,-2.36049 7.98341,1.18002 l 4.40962,2.92728 2.72795,-2.72106 2.72794,-2.72107 -2.88955,-4.33114 c -3.60283,-5.40027 -3.56304,-5.15462 -1.3104,-8.09169 0.86852,-1.13242 2.06967,-2.78989 2.66922,-3.68327 1.09813,-1.6363 1.76357,-2.14651 2.79955,-2.14651 0.30985,0 2.74386,0.58349 5.40889,1.29664 2.66504,0.71316 4.8648,1.27069 4.88836,1.23899 0.0235,-0.0317 0.93874,-1.78286 2.03373,-3.89145 1.58714,-3.05627 1.93967,-3.89552 1.73829,-4.13818 -0.13895,-0.16741 -1.89116,-1.62467 -3.89382,-3.23836 -2.00265,-1.61368 -3.83673,-3.18256 -4.07574,-3.4864 -0.59778,-0.75996 -0.54576,-1.61593 0.21886,-3.60163 1.54424,-4.01031 3.10079,-10.34536 3.73464,-15.19968 0.34385,-2.63334 0.66738,-3.34405 1.71591,-3.76931 0.37595,-0.15248 2.841,-0.69544 5.47789,-1.20657 l 4.79433,-0.92933 v -4.70103 c 0,-2.58557 -0.0698,-4.70104 -0.15513,-4.70104 -0.60228,0 -9.5298,-1.80325 -10.09342,-2.03875 -0.38896,-0.16251 -0.85443,-0.52175 -1.03437,-0.79831 -0.17993,-0.27654 -0.57745,-2.11386 -0.88338,-4.08291 -0.90018,-5.79394 -2.5519,-11.80225 -4.67032,-16.98885 -0.84604,-2.07138 -1.01299,-3.14754 -0.60621,-3.90761 0.1244,-0.23245 1.94248,-1.88642 4.04017,-3.67547 2.09769,-1.78906 3.83956,-3.31763 3.87084,-3.39684 0.12664,-0.32082 -4.65762,-8.311671 -4.93751,-8.246811 -0.15992,0.0371 -2.27854,0.80548 -4.70803,1.707591 -4.43032,1.64505 -5.43417,1.85811 -6.20624,1.31727 -0.22852,-0.16008 -1.20652,-1.30918 -2.17334,-2.553551 -3.84705,-4.95144 -8.56931,-9.67566 -13.84993,-13.85566 -1.56368,-1.23776 -2.145,-1.83784 -2.33338,-2.40862 -0.28928,-0.87653 -0.28566,-0.88973 1.86086,-6.7799 0.75344,-2.06749 1.3699,-3.82272 1.3699,-3.90051 0,-0.17087 -7.678,-4.74994 -8.18822,-4.88337 -0.25618,-0.067 -1.23566,0.98942 -3.41391,3.68199 -1.68007,2.07678 -3.26918,3.92619 -3.53135,4.10982 -0.78143,0.54733 -1.50705,0.40112 -5.17727,-1.04318 -5.24181,-2.06276 -10.7173,-3.58306 -15.566,-4.32201 -1.30364,-0.19868 -2.94907,-0.45103 -3.65652,-0.56078 -0.95057,-0.14747 -1.44163,-0.35492 -1.88154,-0.79481 -0.54988,-0.54989 -0.66456,-0.99358 -1.50441,-5.8203 L 108.07,57.608989 h -4.87858 -4.878579 l -0.811384,4.90208 c -0.871381,5.26459 -1.115912,6.12939 -1.843222,6.51863 -0.257577,0.13785 -2.049974,0.48686 -3.983104,0.77557 -6.066453,0.90603 -12.565632,2.69539 -17.864785,4.91857 -2.478511,1.03981 -3.406694,1.18846 -4.153717,0.66523 -0.251205,-0.17595 -1.832975,-2.01827 -3.515044,-4.09404 -1.682069,-2.07578 -3.147273,-3.77413 -3.256008,-3.77413 -0.19232,0 -7.890412,4.42736 -8.228483,4.7324 -0.09313,0.084 0.619098,2.35869 1.582726,5.05479 1.358449,3.80077 1.722732,5.05829 1.621545,5.59766 -0.143341,0.76407 -0.754036,1.39858 -3.034948,3.15329 -4.583774,3.5263 -9.547624,8.54742 -13.351686,13.50574 -1.522128,1.983981 -1.992003,2.454161 -2.628053,2.629791 -0.872849,0.241 -0.837052,0.25148 -6.860718,-2.00906 -2.014701,-0.756071 -3.72683,-1.312281 -3.804732,-1.236021 -0.260973,0.25546 -4.760615,8.237021 -4.67919,8.300041 1.55755,1.20563 7.61417,6.55085 7.87669,6.95151 0.534634,0.81595 0.428788,1.66793 -0.478177,3.84898 -2.052205,4.93509 -3.878496,11.46916 -4.621491,16.53467 -0.548758,3.74125 -0.812728,4.63997 -1.51556,5.15987 -0.358034,0.26484 -2.28273,0.744 -5.656246,1.40813 l -5.113542,1.00669 v 4.69858 c 0,2.83056 0.08155,4.69858 0.205118,4.69858 0.112815,0 2.458642,0.43699 5.212949,0.97109 6.180685,1.19853 6.176767,1.19582 6.540439,4.52355 0.420602,3.84867 1.89434,10.03222 3.471421,14.56549 1.07964,3.10338 1.165696,3.98902 0.46143,4.74872 -0.266652,0.28764 -1.939284,1.67224 -3.716962,3.07689 -1.777677,1.40466 -3.493,2.79597 -3.811827,3.09182 l -0.579687,0.5379 1.95061,3.90446 c 1.072835,2.14745 1.98277,3.93942 2.022076,3.98216 0.0393,0.0428 2.234354,-0.51503 4.877882,-1.23948 2.643528,-0.72446 5.077882,-1.31696 5.409674,-1.31669 0.96831,7.9e-4 1.767384,0.54966 2.529688,1.73761 0.391368,0.60989 1.533619,2.18966 2.538336,3.51059 1.964731,2.58308 2.222849,3.12926 1.945679,4.11706 -0.09846,0.3509 -1.406971,2.45274 -2.907804,4.67076 l -2.728788,4.03278 0.879476,1.03935 c 0.483712,0.57164 1.69329,1.84402 2.687951,2.82751 l 1.808475,1.78817 3.863525,-2.62426 c 2.124938,-1.44334 4.167871,-2.7699 4.53985,-2.94789 1.053484,-0.50411 1.942492,-0.20383 3.855641,1.30235 2.804657,2.20804 5.293681,3.94125 7.779598,5.41728 2.939582,1.74539 3.674573,2.34628 3.850691,3.14814 0.09282,0.42259 -0.237493,2.31546 -0.978333,5.60643 -0.615153,2.73263 -1.08337,5.00113 -1.040483,5.04111 0.146063,0.13615 6.66751,2.92037 6.840344,2.92037 0.09465,0 1.45782,-1.89703 3.029269,-4.21563 2.195409,-3.23922 3.025305,-4.29581 3.583047,-4.56177 0.702792,-0.33514 0.827098,-0.31746 3.910702,0.55636 4.093833,1.16009 7.602667,1.90108 11.346789,2.39619 2.572882,0.34024 3.06278,0.46773 3.507897,0.91285 0.543367,0.54335 0.652414,0.98743 1.90732,7.76706 l 0.588296,3.17827 h 3.837399 3.8374 z m -7.948297,-14.52743 c -3.098017,-0.22084 -6.136238,-0.56375 -8.356312,-0.94313 -19.493629,-3.33116 -37.296965,-14.82821 -48.605491,-31.3885 -6.687735,-9.79356 -10.736306,-20.52797 -12.344779,-32.731 -0.507802,-3.85254 -0.510728,-12.87361 -0.0055,-16.88168 2.090508,-16.58361 9.412631,-31.69938 20.93295,-43.213931 12.070724,-12.06467 26.437349,-19.21777 43.099948,-21.45934 4.649278,-0.62545 13.010441,-0.68084 17.453561,-0.11562 15.73419,2.0016 28.71203,7.87317 40.64611,18.38953 12.59349,11.097441 21.37495,27.154561 23.86958,43.646141 2.43734,16.11285 -0.47211,32.42491 -8.27922,46.41814 -11.35934,20.36011 -31.32741,34.24948 -54.14396,37.66142 -4.07719,0.60969 -10.48774,0.88736 -14.266913,0.61797 z m 9.942947,-5.2479 c 8.35201,-0.82671 16.11532,-3.02557 23.56359,-6.67407 19.54134,-9.57224 33.36501,-27.39477 37.60435,-48.48238 1.99433,-9.92033 1.71162,-19.80788 -0.85866,-30.03093 -2.19521,-8.73125 -7.03132,-18.43672 -12.73716,-25.56189 -9.06145,-11.315471 -21.61556,-19.679111 -35.42002,-23.597061 -5.53669,-1.57141 -10.09864,-2.25073 -16.19083,-2.41099 -11.602569,-0.3052 -21.566822,1.8618 -31.869076,6.9308 -13.771133,6.7758 -24.619835,17.528011 -31.423414,31.143911 -4.66353,9.33306 -6.872295,18.07781 -7.184139,28.44284 -0.255016,8.47617 0.912976,16.07445 3.704297,24.09801 5.663252,16.27883 17.115746,29.70281 32.536447,38.13742 7.981949,4.36586 17.916308,7.34734 26.931076,8.08249 2.111329,0.17218 9.316029,0.12254 11.343539,-0.0782 z m -10.255496,-8.64372 c -7.824019,-0.55986 -15.339872,-2.65528 -22.59912,-6.30064 l -3.484141,-1.74963 -0.05473,-26.34838 -0.05473,-26.34839 2.748175,0.0603 2.748175,0.0603 0.05476,25.00219 0.05476,25.00218 0.591666,0.24303 c 0.325417,0.13368 1.512827,0.65124 2.638689,1.15016 13.815826,6.12233 29.963992,5.97323 44.128302,-0.40745 l 2.30679,-1.03916 0.0548,-25.03577 0.0548,-25.03578 2.74643,0.0603 2.74641,0.0603 0.0547,25.78693 c 0.035,16.50638 -0.0215,25.98741 -0.15703,26.34395 -0.16963,0.44616 -0.99532,0.93848 -4.1488,2.47376 -7.51029,3.65641 -14.16721,5.44761 -22.47058,6.04625 -3.36806,0.24282 -4.26231,0.24007 -7.959316,-0.0244 z M 64.834109,192.64433 c -3.30823,-2.72899 -7.729379,-7.5649 -10.620623,-11.61699 -8.901366,-12.47528 -12.564231,-28.4629 -10.050745,-43.86935 3.070366,-18.81985 15.211392,-35.2086 32.502349,-43.873771 12.835063,-6.43214 27.46719,-7.99676 41.33818,-4.42027 19.47057,5.02027 35.45983,19.836911 41.86605,38.795671 4.84875,14.34957 4.10453,29.88771 -2.08859,43.6062 -2.89549,6.41385 -7.01943,12.40248 -12.0467,17.49375 -2.45415,2.4854 -5.33366,5.03027 -5.69174,5.03027 -0.13436,0 -0.22882,-12.78778 -0.26381,-35.71515 l -0.0545,-35.71515 -0.96964,-0.0235 c -0.53331,-0.0129 -1.10632,0.084 -1.27338,0.21548 -0.16705,0.13146 -1.05729,1.20865 -1.97831,2.39377 -0.92101,1.18512 -3.88719,4.98318 -6.59149,8.44014 -2.70431,3.45696 -7.41599,9.48697 -10.47039,13.40002 l -5.55347,7.11463 0.94992,0.97738 c 2.71891,2.79756 4.06961,6.1604 4.07534,10.14637 0.003,2.44294 -0.38014,4.21193 -1.35762,6.26006 -1.84622,3.86839 -5.4926,6.87092 -9.7153,7.99984 -1.86133,0.49761 -5.43679,0.48838 -7.29826,-0.0189 -7.129962,-1.94285 -11.862629,-8.81359 -10.970162,-15.92613 0.428504,-3.41499 2.146891,-6.87933 4.362798,-8.79561 l 0.657741,-0.5688 -0.632857,-0.8318 c -0.348072,-0.45748 -1.39244,-1.80143 -2.320817,-2.98655 -5.533693,-7.06402 -14.666118,-18.74812 -18.250366,-23.34966 l -3.555354,-4.56445 -1.07738,0.0589 -1.077381,0.0589 -0.05451,35.71515 c -0.02998,19.64333 -0.132316,35.71515 -0.22742,35.71515 -0.0951,0 -0.797808,-0.51548 -1.561565,-1.1455 z m -1.657297,-75.58668 c 6.076374,-0.0625 7.767907,-0.004 8.026796,0.27747 0.143599,0.15617 2.486815,3.14439 5.207149,6.64049 4.095987,5.26405 11.025803,14.14446 17.083112,21.89165 0.657586,0.84104 1.87436,2.41663 2.703941,3.50133 1.178734,1.54121 1.602506,1.95137 1.939284,1.87701 0.237022,-0.0523 1.012736,-0.24466 1.723811,-0.42742 1.861595,-0.47846 5.049515,-0.43523 7.129305,0.0967 l 1.70359,0.4357 0.35844,-0.48957 c 0.19714,-0.26927 4.10879,-5.2893 8.69256,-11.15564 4.58377,-5.86633 9.5078,-12.16901 10.94229,-14.00594 1.43449,-1.83693 3.52483,-4.50345 4.64518,-5.92559 l 2.03702,-2.58571 5.03195,-0.10774 5.03193,-0.10774 0.0543,32.42914 0.0543,32.42914 1.62073,-2.15788 c 5.44835,-7.25407 8.99459,-15.81515 10.48631,-25.31531 0.54582,-3.47611 0.54214,-11.7881 -0.007,-15.2988 -0.49955,-3.19505 -1.82648,-8.38625 -2.8401,-11.11105 -2.6759,-7.19332 -7.14593,-14.17298 -12.63639,-19.73087 -2.56094,-2.59239 -6.07214,-5.58404 -6.52993,-5.56369 -0.12167,0.006 -0.70605,0.65381 -1.2986,1.4409 -0.59256,0.78708 -2.9197,3.76948 -5.17143,6.62756 -2.25173,2.85807 -8.98392,11.42354 -14.96043,19.03437 -5.97651,7.61083 -10.93522,13.81136 -11.01933,13.77896 -0.19056,-0.0734 -1.22741,-1.35693 -5.182538,-6.41546 -1.714454,-2.19247 -6.318628,-8.05881 -10.231716,-13.0363 -3.913089,-4.9775 -9.096537,-11.57753 -11.518774,-14.66674 -2.422239,-3.08923 -4.64648,-5.92379 -4.942759,-6.29905 l -0.53869,-0.68228 -2.047023,1.66214 c -7.21106,5.85525 -13.341102,14.21062 -16.686715,22.74431 -1.36843,3.49048 -2.37091,7.12066 -3.068641,11.11217 -0.528454,3.02313 -0.589601,3.89641 -0.597891,8.53895 -0.0097,5.40489 0.133843,6.91882 1.102868,11.63571 1.500657,7.30467 5.173447,15.3339 9.950175,21.75247 l 1.43533,1.92867 0.05457,-32.36466 0.05456,-32.36466 z m 41.654338,56.88804 c 2.86754,-0.52893 5.36982,-2.45136 6.61636,-5.08318 0.65258,-1.37779 0.69554,-1.61487 0.69554,-3.83872 0,-2.22384 -0.043,-2.46093 -0.69554,-3.83872 -1.73518,-3.66347 -5.83565,-5.83776 -9.67517,-5.1303 -0.78563,0.14476 -1.919726,0.51216 -2.520214,0.81645 -1.639862,0.83099 -3.491973,2.71307 -4.299225,4.36881 -0.647024,1.3271 -0.689321,1.55845 -0.691767,3.78376 -0.0024,2.2346 0.03706,2.45131 0.690643,3.78687 1.482648,3.02975 4.759287,5.20685 8.047823,5.34725 0.30415,0.013 1.12834,-0.0825 1.83155,-0.21222 z m 0.22274,-41.59444 c 2.63799,-3.38255 3.41371,-4.3725 6.75442,-8.61978 16.31664,-20.74456 18.77333,-23.891451 18.87918,-24.183271 0.28747,-0.79256 -8.23663,-4.54228 -13.48075,-5.93014 -5.26001,-1.39207 -7.27454,-1.63106 -13.79049,-1.63608 -4.761216,-0.004 -6.39133,0.0732 -8.295817,0.39109 -3.594212,0.59995 -8.568291,1.9293 -11.436011,3.05632 -2.596867,1.02058 -8.064569,3.707 -8.064569,3.96233 0,0.0761 4.56576,5.953741 10.146134,13.061431 5.580373,7.10768 11.76026,14.98354 13.733073,17.50192 1.97281,2.51838 3.64671,4.57887 3.71977,4.57887 0.0731,0 0.89883,-0.98221 1.83506,-2.18269 z"
       id="path1" /></g></svg>
